<?xml version="1.0" encoding="UTF-8" standalone="no"?>
<!DOCTYPE svg PUBLIC "-//W3C//DTD SVG 1.1//EN"
 "http://www.w3.org/Graphics/SVG/1.1/DTD/svg11.dtd">
<!-- Generated by graphviz version 15.0.0 (20260523.1842)
 -->
<!-- Title: pipeline Pages: 1 -->
<svg width="652pt" height="780pt"
 viewBox="0.00 0.00 652.00 780.00" xmlns="http://www.w3.org/2000/svg" xmlns:xlink="http://www.w3.org/1999/xlink">
<g id="graph0" class="graph" transform="scale(1 1) rotate(0) translate(43.2 736.52)">
<title>pipeline</title>
<polygon fill="#ffffff" stroke="none" points="-43.2,43.2 -43.2,-736.52 609.2,-736.52 609.2,43.2 -43.2,43.2"/>
<g id="clust1" class="cluster">
<title>cluster_sources</title>
<path fill="#fafaf7" stroke="#b0a89a" stroke-dasharray="5,2" d="M20,-599.82C20,-599.82 536,-599.82 536,-599.82 542,-599.82 548,-605.82 548,-611.82 548,-611.82 548,-673.32 548,-673.32 548,-679.32 542,-685.32 536,-685.32 536,-685.32 20,-685.32 20,-685.32 14,-685.32 8,-679.32 8,-673.32 8,-673.32 8,-611.82 8,-611.82 8,-605.82 14,-599.82 20,-599.82"/>
<text xml:space="preserve" text-anchor="middle" x="278" y="-670.87" font-family="Helvetica Neue, Arial, sans-serif" font-size="11.00" fill="#5c5448">Fuentes</text>
</g>
<g id="clust3" class="cluster">
<title>cluster_adapters</title>
<path fill="#f5f4fc" stroke="#7c6fc4" stroke-dasharray="5,2" d="M24,-506.32C24,-506.32 493,-506.32 493,-506.32 499,-506.32 505,-512.32 505,-518.32 505,-518.32 505,-579.82 505,-579.82 505,-585.82 499,-591.82 493,-591.82 493,-591.82 24,-591.82 24,-591.82 18,-591.82 12,-585.82 12,-579.82 12,-579.82 12,-518.32 12,-518.32 12,-512.32 18,-506.32 24,-506.32"/>
<text xml:space="preserve" text-anchor="middle" x="258.5" y="-577.37" font-family="Helvetica Neue, Arial, sans-serif" font-size="11.00" fill="#3d2e8a">Adapters</text>
</g>
<g id="clust5" class="cluster">
<title>cluster_parsers</title>
<path fill="#fef6f5" stroke="#c05a50" stroke-dasharray="5,2" d="M24,-408.66C24,-408.66 482,-408.66 482,-408.66 488,-408.66 494,-414.66 494,-420.66 494,-420.66 494,-486.32 494,-486.32 494,-492.32 488,-498.32 482,-498.32 482,-498.32 24,-498.32 24,-498.32 18,-498.32 12,-492.32 12,-486.32 12,-486.32 12,-420.66 12,-420.66 12,-414.66 18,-408.66 24,-408.66"/>
<text xml:space="preserve" text-anchor="middle" x="253" y="-483.87" font-family="Helvetica Neue, Arial, sans-serif" font-size="11.00" fill="#7a2a22">Parsers (uno por fuente)</text>
</g>
<g id="clust7" class="cluster">
<title>cluster_models</title>
<path fill="#f0faf7" stroke="#3bab8e" stroke-dasharray="5,2" d="M34,-315.16C34,-315.16 352,-315.16 352,-315.16 358,-315.16 364,-321.16 364,-327.16 364,-327.16 364,-388.66 364,-388.66 364,-394.66 358,-400.66 352,-400.66 352,-400.66 34,-400.66 34,-400.66 28,-400.66 22,-394.66 22,-388.66 22,-388.66 22,-327.16 22,-327.16 22,-321.16 28,-315.16 34,-315.16"/>
<text xml:space="preserve" text-anchor="middle" x="193" y="-386.21" font-family="Helvetica Neue, Arial, sans-serif" font-size="11.00" fill="#1a5c48">Modelos tipados</text>
</g>
<g id="clust9" class="cluster">
<title>cluster_cleaning</title>
<path fill="#f5fdf9" stroke="#aad4c8" stroke-dasharray="5,2" d="M20,-165.5C20,-165.5 546,-165.5 546,-165.5 552,-165.5 558,-171.5 558,-177.5 558,-177.5 558,-295.16 558,-295.16 558,-301.16 552,-307.16 546,-307.16 546,-307.16 20,-307.16 20,-307.16 14,-307.16 8,-301.16 8,-295.16 8,-295.16 8,-177.5 8,-177.5 8,-171.5 14,-165.5 20,-165.5"/>
<text xml:space="preserve" text-anchor="middle" x="283" y="-292.71" font-family="Helvetica Neue, Arial, sans-serif" font-size="11.00" fill="#2d7a64">Limpieza compartida</text>
</g>
<g id="clust10" class="cluster">
<title>cluster_modules</title>
<path fill="#edf9f5" stroke="#c0ddd6" stroke-dasharray="5,2" d="M38,-183.5C38,-183.5 528,-183.5 528,-183.5 534,-183.5 540,-189.5 540,-195.5 540,-195.5 540,-255.66 540,-255.66 540,-261.66 534,-267.66 528,-267.66 528,-267.66 38,-267.66 38,-267.66 32,-267.66 26,-261.66 26,-255.66 26,-255.66 26,-195.5 26,-195.5 26,-189.5 32,-183.5 38,-183.5"/>
<text xml:space="preserve" text-anchor="middle" x="283" y="-254.16" font-family="Helvetica Neue, Arial, sans-serif" font-size="10.00" fill="#3d7a68">Módulos reutilizables</text>
</g>
<g id="clust12" class="cluster">
<title>cluster_export</title>
<path fill="#f0faf7" stroke="#3bab8e" stroke-dasharray="5,2" d="M90,-72C90,-72 467,-72 467,-72 473,-72 479,-78 479,-84 479,-84 479,-145.5 479,-145.5 479,-151.5 473,-157.5 467,-157.5 467,-157.5 90,-157.5 90,-157.5 84,-157.5 78,-151.5 78,-145.5 78,-145.5 78,-84 78,-84 78,-78 84,-72 90,-72"/>
<text xml:space="preserve" text-anchor="middle" x="278.5" y="-143.05" font-family="Helvetica Neue, Arial, sans-serif" font-size="11.00" fill="#1a5c48">Export</text>
</g>
<!-- s_webapp -->
<g id="node1" class="node">
<title>s_webapp</title>
<path fill="#f5f0e8" stroke="#c9c0ab" stroke-width="1.4" d="M249.84,-649.82C249.84,-649.82 182.16,-649.82 182.16,-649.82 176.16,-649.82 170.16,-643.82 170.16,-637.82 170.16,-637.82 170.16,-625.82 170.16,-625.82 170.16,-619.82 176.16,-613.82 182.16,-613.82 182.16,-613.82 249.84,-613.82 249.84,-613.82 255.84,-613.82 261.84,-619.82 261.84,-625.82 261.84,-625.82 261.84,-637.82 261.84,-637.82 261.84,-643.82 255.84,-649.82 249.84,-649.82"/>
<text xml:space="preserve" text-anchor="start" x="186" y="-629.49" font-family="Helvetica Neue, Arial, sans-serif" font-weight="bold" font-size="11.00" fill="#333333">WebApp JS</text>
</g>
<!-- a_playwright -->
<g id="node5" class="node">
<title>a_playwright</title>
<path fill="#e8e4f8" stroke="#7c6fc4" stroke-width="1.4" d="M247.97,-556.32C247.97,-556.32 184.03,-556.32 184.03,-556.32 178.03,-556.32 172.03,-550.32 172.03,-544.32 172.03,-544.32 172.03,-532.32 172.03,-532.32 172.03,-526.32 178.03,-520.32 184.03,-520.32 184.03,-520.32 247.97,-520.32 247.97,-520.32 253.97,-520.32 259.97,-526.32 259.97,-532.32 259.97,-532.32 259.97,-544.32 259.97,-544.32 259.97,-550.32 253.97,-556.32 247.97,-556.32"/>
<text xml:space="preserve" text-anchor="start" x="187.88" y="-535.99" font-family="Helvetica Neue, Arial, sans-serif" font-weight="bold" font-size="11.00" fill="#3d2e8a">Playwright</text>
</g>
<!-- s_webapp&#45;&gt;a_playwright -->
<g id="edge1" class="edge">
<title>s_webapp&#45;&gt;a_playwright</title>
<path fill="none" stroke="#888888" stroke-width="1.3" d="M216,-613.35C216,-613.35 216,-566.22 216,-566.22"/>
<polygon fill="#888888" stroke="#888888" stroke-width="1.3" points="218.63,-566.22 216,-558.72 213.38,-566.22 218.63,-566.22"/>
</g>
<!-- s_html -->
<g id="node2" class="node">
<title>s_html</title>
<path fill="#f5f0e8" stroke="#c9c0ab" stroke-width="1.4" d="M117.72,-649.82C117.72,-649.82 34.29,-649.82 34.29,-649.82 28.28,-649.82 22.28,-643.82 22.28,-637.82 22.28,-637.82 22.28,-625.82 22.28,-625.82 22.28,-619.82 28.28,-613.82 34.28,-613.82 34.28,-613.82 117.72,-613.82 117.72,-613.82 123.72,-613.82 129.72,-619.82 129.72,-625.82 129.72,-625.82 129.72,-637.82 129.72,-637.82 129.72,-643.82 123.72,-649.82 117.72,-649.82"/>
<text xml:space="preserve" text-anchor="start" x="38.12" y="-629.49" font-family="Helvetica Neue, Arial, sans-serif" font-weight="bold" font-size="11.00" fill="#333333">HTML estático</text>
</g>
<!-- a_bs4 -->
<g id="node6" class="node">
<title>a_bs4</title>
<path fill="#e8e4f8" stroke="#7c6fc4" stroke-width="1.4" d="M119.97,-556.32C119.97,-556.32 38.04,-556.32 38.04,-556.32 32.03,-556.32 26.03,-550.32 26.03,-544.32 26.03,-544.32 26.03,-532.32 26.03,-532.32 26.03,-526.32 32.03,-520.32 38.03,-520.32 38.03,-520.32 119.97,-520.32 119.97,-520.32 125.97,-520.32 131.97,-526.32 131.97,-532.32 131.97,-532.32 131.97,-544.32 131.97,-544.32 131.97,-550.32 125.97,-556.32 119.97,-556.32"/>
<text xml:space="preserve" text-anchor="start" x="41.88" y="-535.99" font-family="Helvetica Neue, Arial, sans-serif" font-weight="bold" font-size="11.00" fill="#3d2e8a">BeautifulSoup</text>
</g>
<!-- s_html&#45;&gt;a_bs4 -->
<g id="edge2" class="edge">
<title>s_html&#45;&gt;a_bs4</title>
<path fill="none" stroke="#888888" stroke-width="1.3" d="M77.88,-613.35C77.88,-613.35 77.88,-566.22 77.88,-566.22"/>
<polygon fill="#888888" stroke="#888888" stroke-width="1.3" points="80.5,-566.22 77.88,-558.72 75.25,-566.22 80.5,-566.22"/>
</g>
<!-- s_api -->
<g id="node3" class="node">
<title>s_api</title>
<path fill="#f5f0e8" stroke="#c9c0ab" stroke-width="1.4" d="M379.72,-649.82C379.72,-649.82 314.28,-649.82 314.28,-649.82 308.28,-649.82 302.28,-643.82 302.28,-637.82 302.28,-637.82 302.28,-625.82 302.28,-625.82 302.28,-619.82 308.28,-613.82 314.28,-613.82 314.28,-613.82 379.72,-613.82 379.72,-613.82 385.72,-613.82 391.72,-619.82 391.72,-625.82 391.72,-625.82 391.72,-637.82 391.72,-637.82 391.72,-643.82 385.72,-649.82 379.72,-649.82"/>
<text xml:space="preserve" text-anchor="start" x="318.12" y="-629.49" font-family="Helvetica Neue, Arial, sans-serif" font-weight="bold" font-size="11.00" fill="#333333">API / JSON</text>
</g>
<!-- a_httpx -->
<g id="node7" class="node">
<title>a_httpx</title>
<path fill="#e8e4f8" stroke="#7c6fc4" stroke-width="1.4" d="M346.34,-556.32C346.34,-556.32 311.66,-556.32 311.66,-556.32 305.66,-556.32 299.66,-550.32 299.66,-544.32 299.66,-544.32 299.66,-532.32 299.66,-532.32 299.66,-526.32 305.66,-520.32 311.66,-520.32 311.66,-520.32 346.34,-520.32 346.34,-520.32 352.34,-520.32 358.34,-526.32 358.34,-532.32 358.34,-532.32 358.34,-544.32 358.34,-544.32 358.34,-550.32 352.34,-556.32 346.34,-556.32"/>
<text xml:space="preserve" text-anchor="start" x="315.5" y="-535.99" font-family="Helvetica Neue, Arial, sans-serif" font-weight="bold" font-size="11.00" fill="#3d2e8a">httpx</text>
</g>
<!-- s_api&#45;&gt;a_httpx -->
<g id="edge3" class="edge">
<title>s_api&#45;&gt;a_httpx</title>
<path fill="none" stroke="#888888" stroke-width="1.3" d="M330.31,-613.35C330.31,-613.35 330.31,-566.22 330.31,-566.22"/>
<polygon fill="#888888" stroke="#888888" stroke-width="1.3" points="332.94,-566.22 330.31,-558.72 327.69,-566.22 332.94,-566.22"/>
</g>
<!-- s_pdf -->
<g id="node4" class="node">
<title>s_pdf</title>
<path fill="#f5f0e8" stroke="#c9c0ab" stroke-width="1.4" d="M522.09,-649.82C522.09,-649.82 443.91,-649.82 443.91,-649.82 437.91,-649.82 431.91,-643.82 431.91,-637.82 431.91,-637.82 431.91,-625.82 431.91,-625.82 431.91,-619.82 437.91,-613.82 443.91,-613.82 443.91,-613.82 522.09,-613.82 522.09,-613.82 528.09,-613.82 534.09,-619.82 534.09,-625.82 534.09,-625.82 534.09,-637.82 534.09,-637.82 534.09,-643.82 528.09,-649.82 522.09,-649.82"/>
<text xml:space="preserve" text-anchor="start" x="447.75" y="-629.49" font-family="Helvetica Neue, Arial, sans-serif" font-weight="bold" font-size="11.00" fill="#333333">PDF / manual</text>
</g>
<!-- a_pdf -->
<g id="node8" class="node">
<title>a_pdf</title>
<path fill="#e8e4f8" stroke="#7c6fc4" stroke-width="1.4" d="M479.22,-556.32C479.22,-556.32 410.78,-556.32 410.78,-556.32 404.78,-556.32 398.78,-550.32 398.78,-544.32 398.78,-544.32 398.78,-532.32 398.78,-532.32 398.78,-526.32 404.78,-520.32 410.78,-520.32 410.78,-520.32 479.22,-520.32 479.22,-520.32 485.22,-520.32 491.22,-526.32 491.22,-532.32 491.22,-532.32 491.22,-544.32 491.22,-544.32 491.22,-550.32 485.22,-556.32 479.22,-556.32"/>
<text xml:space="preserve" text-anchor="start" x="414.62" y="-535.99" font-family="Helvetica Neue, Arial, sans-serif" font-weight="bold" font-size="11.00" fill="#3d2e8a">pdfplumber</text>
</g>
<!-- s_pdf&#45;&gt;a_pdf -->
<g id="edge4" class="edge">
<title>s_pdf&#45;&gt;a_pdf</title>
<path fill="none" stroke="#888888" stroke-width="1.3" d="M461.56,-613.35C461.56,-613.35 461.56,-566.22 461.56,-566.22"/>
<polygon fill="#888888" stroke="#888888" stroke-width="1.3" points="464.19,-566.22 461.56,-558.72 458.94,-566.22 464.19,-566.22"/>
</g>
<!-- p_encuentralos -->
<g id="node9" class="node">
<title>p_encuentralos</title>
<path fill="#fde8e4" stroke="#d4665a" stroke-width="1.4" d="M251.97,-462.82C251.97,-462.82 176.03,-462.82 176.03,-462.82 170.03,-462.82 164.03,-456.82 164.03,-450.82 164.03,-450.82 164.03,-434.66 164.03,-434.66 164.03,-428.66 170.03,-422.66 176.03,-422.66 176.03,-422.66 251.97,-422.66 251.97,-422.66 257.97,-422.66 263.97,-428.66 263.97,-434.66 263.97,-434.66 263.97,-450.82 263.97,-450.82 263.97,-456.82 257.97,-462.82 251.97,-462.82"/>
<text xml:space="preserve" text-anchor="start" x="179.88" y="-443.29" font-family="Helvetica Neue, Arial, sans-serif" font-weight="bold" font-size="11.00" fill="#8b2020">encuentralos</text>
<text xml:space="preserve" text-anchor="start" x="194.12" y="-434.19" font-family="Helvetica Neue, Arial, sans-serif" font-size="9.00" fill="#b94a3a">→ Person</text>
</g>
<!-- a_playwright&#45;&gt;p_encuentralos -->
<g id="edge5" class="edge">
<title>a_playwright&#45;&gt;p_encuentralos</title>
<path fill="none" stroke="#888888" stroke-width="1.3" d="M216,-519.89C216,-519.89 216,-472.9 216,-472.9"/>
<polygon fill="#888888" stroke="#888888" stroke-width="1.3" points="218.63,-472.9 216,-465.4 213.38,-472.9 218.63,-472.9"/>
</g>
<!-- p_veneconnect -->
<g id="node10" class="node">
<title>p_veneconnect</title>
<path fill="#fde8e4" stroke="#d4665a" stroke-width="1.4" d="M112.22,-462.82C112.22,-462.82 37.79,-462.82 37.79,-462.82 31.79,-462.82 25.78,-456.82 25.78,-450.82 25.78,-450.82 25.78,-434.66 25.78,-434.66 25.78,-428.66 31.78,-422.66 37.78,-422.66 37.78,-422.66 112.22,-422.66 112.22,-422.66 118.22,-422.66 124.22,-428.66 124.22,-434.66 124.22,-434.66 124.22,-450.82 124.22,-450.82 124.22,-456.82 118.22,-462.82 112.22,-462.82"/>
<text xml:space="preserve" text-anchor="start" x="41.62" y="-443.29" font-family="Helvetica Neue, Arial, sans-serif" font-weight="bold" font-size="11.00" fill="#8b2020">veneconnect</text>
<text xml:space="preserve" text-anchor="start" x="41.62" y="-434.19" font-family="Helvetica Neue, Arial, sans-serif" font-size="9.00" fill="#b94a3a">→ AcopioCenter</text>
</g>
<!-- a_bs4&#45;&gt;p_veneconnect -->
<g id="edge6" class="edge">
<title>a_bs4&#45;&gt;p_veneconnect</title>
<path fill="none" stroke="#888888" stroke-width="1.3" d="M75.12,-519.89C75.12,-519.89 75.12,-472.9 75.12,-472.9"/>
<polygon fill="#888888" stroke="#888888" stroke-width="1.3" points="77.75,-472.9 75.13,-465.4 72.5,-472.9 77.75,-472.9"/>
</g>
<!-- p_usgs -->
<g id="node11" class="node">
<title>p_usgs</title>
<path fill="#fde8e4" stroke="#d4665a" stroke-width="1.4" d="M357.72,-462.82C357.72,-462.82 316.28,-462.82 316.28,-462.82 310.28,-462.82 304.28,-456.82 304.28,-450.82 304.28,-450.82 304.28,-434.66 304.28,-434.66 304.28,-428.66 310.28,-422.66 316.28,-422.66 316.28,-422.66 357.72,-422.66 357.72,-422.66 363.72,-422.66 369.72,-428.66 369.72,-434.66 369.72,-434.66 369.72,-450.82 369.72,-450.82 369.72,-456.82 363.72,-462.82 357.72,-462.82"/>
<text xml:space="preserve" text-anchor="start" x="324.25" y="-443.29" font-family="Helvetica Neue, Arial, sans-serif" font-weight="bold" font-size="11.00" fill="#8b2020">usgs</text>
<text xml:space="preserve" text-anchor="start" x="320.12" y="-434.19" font-family="Helvetica Neue, Arial, sans-serif" font-size="9.00" fill="#b94a3a">→ Event</text>
</g>
<!-- a_httpx&#45;&gt;p_usgs -->
<g id="edge7" class="edge">
<title>a_httpx&#45;&gt;p_usgs</title>
<path fill="none" stroke="#888888" stroke-width="1.3" d="M331.31,-519.89C331.31,-519.89 331.31,-472.9 331.31,-472.9"/>
<polygon fill="#888888" stroke="#888888" stroke-width="1.3" points="333.94,-472.9 331.31,-465.4 328.69,-472.9 333.94,-472.9"/>
</g>
<!-- p_nmas -->
<g id="node12" class="node">
<title>p_nmas</title>
<path fill="#fdf4f2" stroke="#e0b0aa" stroke-width="1.4" d="M467.97,-460.74C467.97,-460.74 422.03,-460.74 422.03,-460.74 416.03,-460.74 410.03,-454.74 410.03,-448.74 410.03,-448.74 410.03,-436.74 410.03,-436.74 410.03,-430.74 416.03,-424.74 422.03,-424.74 422.03,-424.74 467.97,-424.74 467.97,-424.74 473.97,-424.74 479.97,-430.74 479.97,-436.74 479.97,-436.74 479.97,-448.74 479.97,-448.74 479.97,-454.74 473.97,-460.74 467.97,-460.74"/>
<text xml:space="preserve" text-anchor="start" x="425.88" y="-438.99" font-family="Helvetica Neue, Arial, sans-serif" font-size="10.00" fill="#999999">+ N más</text>
</g>
<!-- a_pdf&#45;&gt;p_nmas -->
<g id="edge8" class="edge">
<title>a_pdf&#45;&gt;p_nmas</title>
<path fill="none" stroke="#cccccc" stroke-width="1.3" stroke-dasharray="5,2" d="M445,-519.89C445,-519.89 445,-470.91 445,-470.91"/>
<polygon fill="#cccccc" stroke="#cccccc" stroke-width="1.3" points="447.63,-470.91 445,-463.41 442.38,-470.91 447.63,-470.91"/>
</g>
<!-- m_person -->
<g id="node13" class="node">
<title>m_person</title>
<path fill="#d6f5ef" stroke="#3bab8e" stroke-width="1.4" d="M236.59,-365.16C236.59,-365.16 191.41,-365.16 191.41,-365.16 185.41,-365.16 179.41,-359.16 179.41,-353.16 179.41,-353.16 179.41,-341.16 179.41,-341.16 179.41,-335.16 185.41,-329.16 191.41,-329.16 191.41,-329.16 236.59,-329.16 236.59,-329.16 242.59,-329.16 248.59,-335.16 248.59,-341.16 248.59,-341.16 248.59,-353.16 248.59,-353.16 248.59,-359.16 242.59,-365.16 236.59,-365.16"/>
<text xml:space="preserve" text-anchor="start" x="195.25" y="-344.83" font-family="Helvetica Neue, Arial, sans-serif" font-weight="bold" font-size="11.00" fill="#1a5c48">Person</text>
</g>
<!-- p_encuentralos&#45;&gt;m_person -->
<g id="edge9" class="edge">
<title>p_encuentralos&#45;&gt;m_person</title>
<path fill="none" stroke="#888888" stroke-width="1.3" d="M214,-422C214,-422 214,-375.07 214,-375.07"/>
<polygon fill="#888888" stroke="#888888" stroke-width="1.3" points="216.63,-375.07 214,-367.57 211.38,-375.07 216.63,-375.07"/>
</g>
<!-- m_acopio -->
<g id="node14" class="node">
<title>m_acopio</title>
<path fill="#d6f5ef" stroke="#3bab8e" stroke-width="1.4" d="M127.84,-365.16C127.84,-365.16 48.16,-365.16 48.16,-365.16 42.16,-365.16 36.16,-359.16 36.16,-353.16 36.16,-353.16 36.16,-341.16 36.16,-341.16 36.16,-335.16 42.16,-329.16 48.16,-329.16 48.16,-329.16 127.84,-329.16 127.84,-329.16 133.84,-329.16 139.84,-335.16 139.84,-341.16 139.84,-341.16 139.84,-353.16 139.84,-353.16 139.84,-359.16 133.84,-365.16 127.84,-365.16"/>
<text xml:space="preserve" text-anchor="start" x="52" y="-344.83" font-family="Helvetica Neue, Arial, sans-serif" font-weight="bold" font-size="11.00" fill="#1a5c48">AcopioCenter</text>
</g>
<!-- p_veneconnect&#45;&gt;m_acopio -->
<g id="edge10" class="edge">
<title>p_veneconnect&#45;&gt;m_acopio</title>
<path fill="none" stroke="#888888" stroke-width="1.3" d="M80.19,-422C80.19,-422 80.19,-375.07 80.19,-375.07"/>
<polygon fill="#888888" stroke="#888888" stroke-width="1.3" points="82.81,-375.07 80.19,-367.57 77.56,-375.07 82.81,-375.07"/>
</g>
<!-- m_event -->
<g id="node15" class="node">
<title>m_event</title>
<path fill="#d6f5ef" stroke="#3bab8e" stroke-width="1.4" d="M337.84,-365.16C337.84,-365.16 300.16,-365.16 300.16,-365.16 294.16,-365.16 288.16,-359.16 288.16,-353.16 288.16,-353.16 288.16,-341.16 288.16,-341.16 288.16,-335.16 294.16,-329.16 300.16,-329.16 300.16,-329.16 337.84,-329.16 337.84,-329.16 343.84,-329.16 349.84,-335.16 349.84,-341.16 349.84,-341.16 349.84,-353.16 349.84,-353.16 349.84,-359.16 343.84,-365.16 337.84,-365.16"/>
<text xml:space="preserve" text-anchor="start" x="304" y="-344.83" font-family="Helvetica Neue, Arial, sans-serif" font-weight="bold" font-size="11.00" fill="#1a5c48">Event</text>
</g>
<!-- p_usgs&#45;&gt;m_event -->
<g id="edge11" class="edge">
<title>p_usgs&#45;&gt;m_event</title>
<path fill="none" stroke="#888888" stroke-width="1.3" d="M327.06,-422C327.06,-422 327.06,-375.07 327.06,-375.07"/>
<polygon fill="#888888" stroke="#888888" stroke-width="1.3" points="329.69,-375.07 327.06,-367.57 324.44,-375.07 329.69,-375.07"/>
</g>
<!-- c_pii -->
<g id="node16" class="node">
<title>c_pii</title>
<path fill="#d6f5ef" stroke="#3bab8e" stroke-width="1.4" d="M248.59,-235.66C248.59,-235.66 179.41,-235.66 179.41,-235.66 173.41,-235.66 167.41,-229.66 167.41,-223.66 167.41,-223.66 167.41,-207.5 167.41,-207.5 167.41,-201.5 173.41,-195.5 179.41,-195.5 179.41,-195.5 248.59,-195.5 248.59,-195.5 254.59,-195.5 260.59,-201.5 260.59,-207.5 260.59,-207.5 260.59,-223.66 260.59,-223.66 260.59,-229.66 254.59,-235.66 248.59,-235.66"/>
<text xml:space="preserve" text-anchor="start" x="207.25" y="-216.13" font-family="Helvetica Neue, Arial, sans-serif" font-weight="bold" font-size="11.00" fill="#1a5c48">PII</text>
<text xml:space="preserve" text-anchor="start" x="183.25" y="-207.03" font-family="Helvetica Neue, Arial, sans-serif" font-size="9.00" fill="#3a8a72">redact + HMAC</text>
</g>
<!-- m_person&#45;&gt;c_pii -->
<g id="edge12" class="edge">
<title>m_person&#45;&gt;c_pii</title>
<path fill="none" stroke="#888888" stroke-width="1.3" d="M214,-315.16C214,-313.16 214,-311.16 214,-309.16"/>
<polygon fill="#888888" stroke="#888888" stroke-width="1.3" points="216.63,-316.63 214,-309.13 211.38,-316.63 216.63,-316.63"/>
</g>
<!-- c_norm -->
<g id="node17" class="node">
<title>c_norm</title>
<path fill="#d6f5ef" stroke="#3bab8e" stroke-width="1.4" d="M115.72,-235.66C115.72,-235.66 50.29,-235.66 50.29,-235.66 44.28,-235.66 38.28,-229.66 38.28,-223.66 38.28,-223.66 38.28,-207.5 38.28,-207.5 38.28,-201.5 44.28,-195.5 50.28,-195.5 50.28,-195.5 115.72,-195.5 115.72,-195.5 121.72,-195.5 127.72,-201.5 127.72,-207.5 127.72,-207.5 127.72,-223.66 127.72,-223.66 127.72,-229.66 121.72,-235.66 115.72,-235.66"/>
<text xml:space="preserve" text-anchor="start" x="54.12" y="-216.13" font-family="Helvetica Neue, Arial, sans-serif" font-weight="bold" font-size="11.00" fill="#1a5c48">Normalizar</text>
<text xml:space="preserve" text-anchor="start" x="54.88" y="-207.03" font-family="Helvetica Neue, Arial, sans-serif" font-size="9.00" fill="#3a8a72">texto + fechas</text>
</g>
<!-- m_acopio&#45;&gt;c_norm -->
<!-- c_dedup -->
<g id="node18" class="node">
<title>c_dedup</title>
<path fill="#d6f5ef" stroke="#3bab8e" stroke-width="1.4" d="M516.22,-235.66C516.22,-235.66 435.78,-235.66 435.78,-235.66 429.78,-235.66 423.78,-229.66 423.78,-223.66 423.78,-223.66 423.78,-207.5 423.78,-207.5 423.78,-201.5 429.78,-195.5 435.78,-195.5 435.78,-195.5 516.22,-195.5 516.22,-195.5 522.22,-195.5 528.22,-201.5 528.22,-207.5 528.22,-207.5 528.22,-223.66 528.22,-223.66 528.22,-229.66 522.22,-235.66 516.22,-235.66"/>
<text xml:space="preserve" text-anchor="start" x="458.75" y="-216.13" font-family="Helvetica Neue, Arial, sans-serif" font-weight="bold" font-size="11.00" fill="#1a5c48">Dedup</text>
<text xml:space="preserve" text-anchor="start" x="439.62" y="-207.03" font-family="Helvetica Neue, Arial, sans-serif" font-size="9.00" fill="#3a8a72">fingerprint + fuzzy</text>
</g>
<!-- m_event&#45;&gt;c_dedup -->
<!-- e_persons -->
<g id="node20" class="node">
<title>e_persons</title>
<path fill="#d6f5ef" stroke="#3bab8e" stroke-width="1.4" d="M318.47,-122C318.47,-122 239.53,-122 239.53,-122 233.53,-122 227.53,-116 227.53,-110 227.53,-110 227.53,-98 227.53,-98 227.53,-92 233.53,-86 239.53,-86 239.53,-86 318.47,-86 318.47,-86 324.47,-86 330.47,-92 330.47,-98 330.47,-98 330.47,-110 330.47,-110 330.47,-116 324.47,-122 318.47,-122"/>
<text xml:space="preserve" text-anchor="start" x="243.38" y="-101.67" font-family="Helvetica Neue, Arial, sans-serif" font-weight="bold" font-size="11.00" fill="#1a5c48">persons.jsonl</text>
</g>
<!-- c_pii&#45;&gt;e_persons -->
<g id="edge15" class="edge">
<title>c_pii&#45;&gt;e_persons</title>
<path fill="none" stroke="#888888" stroke-width="1.3" d="M244.06,-165.5C244.06,-149.07 244.06,-131.86 244.06,-131.86"/>
<polygon fill="#888888" stroke="#888888" stroke-width="1.3" points="246.69,-131.86 244.06,-124.36 241.44,-131.86 246.69,-131.86"/>
</g>
<!-- e_acopio -->
<g id="node21" class="node">
<title>e_acopio</title>
<path fill="#d6f5ef" stroke="#3bab8e" stroke-width="1.4" d="M175.72,-122C175.72,-122 104.28,-122 104.28,-122 98.28,-122 92.28,-116 92.28,-110 92.28,-110 92.28,-98 92.28,-98 92.28,-92 98.28,-86 104.28,-86 104.28,-86 175.72,-86 175.72,-86 181.72,-86 187.72,-92 187.72,-98 187.72,-98 187.72,-110 187.72,-110 187.72,-116 181.72,-122 175.72,-122"/>
<text xml:space="preserve" text-anchor="start" x="108.12" y="-101.67" font-family="Helvetica Neue, Arial, sans-serif" font-weight="bold" font-size="11.00" fill="#1a5c48">acopio.jsonl</text>
</g>
<!-- c_norm&#45;&gt;e_acopio -->
<!-- e_events -->
<g id="node22" class="node">
<title>e_events</title>
<path fill="#d6f5ef" stroke="#3bab8e" stroke-width="1.4" d="M453.34,-122C453.34,-122 382.66,-122 382.66,-122 376.66,-122 370.66,-116 370.66,-110 370.66,-110 370.66,-98 370.66,-98 370.66,-92 376.66,-86 382.66,-86 382.66,-86 453.34,-86 453.34,-86 459.34,-86 465.34,-92 465.34,-98 465.34,-98 465.34,-110 465.34,-110 465.34,-116 459.34,-122 453.34,-122"/>
<text xml:space="preserve" text-anchor="start" x="386.5" y="-101.67" font-family="Helvetica Neue, Arial, sans-serif" font-weight="bold" font-size="11.00" fill="#1a5c48">events.jsonl</text>
</g>
<!-- c_dedup&#45;&gt;e_events -->
<!-- c_valid -->
<g id="node19" class="node">
<title>c_valid</title>
<path fill="#d6f5ef" stroke="#3bab8e" stroke-width="1.4" d="M371.34,-235.66C371.34,-235.66 312.66,-235.66 312.66,-235.66 306.66,-235.66 300.66,-229.66 300.66,-223.66 300.66,-223.66 300.66,-207.5 300.66,-207.5 300.66,-201.5 306.66,-195.5 312.66,-195.5 312.66,-195.5 371.34,-195.5 371.34,-195.5 377.34,-195.5 383.34,-201.5 383.34,-207.5 383.34,-207.5 383.34,-223.66 383.34,-223.66 383.34,-229.66 377.34,-235.66 371.34,-235.66"/>
<text xml:space="preserve" text-anchor="start" x="324" y="-216.13" font-family="Helvetica Neue, Arial, sans-serif" font-weight="bold" font-size="11.00" fill="#1a5c48">Validar</text>
<text xml:space="preserve" text-anchor="start" x="316.5" y="-207.03" font-family="Helvetica Neue, Arial, sans-serif" font-size="9.00" fill="#3a8a72">quality score</text>
</g>
<!-- c_valid&#45;&gt;e_persons -->
<!-- db -->
<g id="node23" class="node">
<title>db</title>
<path fill="#f5f0e8" stroke="#c9c0ab" stroke-width="1.4" d="M382.2,-36C382.2,-36 175.8,-36 175.8,-36 169.8,-36 163.8,-30 163.8,-24 163.8,-24 163.8,-12 163.8,-12 163.8,-6 169.8,0 175.8,0 175.8,0 382.2,0 382.2,0 388.2,0 394.2,-6 394.2,-12 394.2,-12 394.2,-24 394.2,-24 394.2,-30 388.2,-36 382.2,-36"/>
<text xml:space="preserve" text-anchor="start" x="255" y="-15.1" font-family="Helvetica Neue, Arial, sans-serif" font-weight="bold" font-size="12.00" fill="#333333">DB / API</text>
</g>
<!-- e_persons&#45;&gt;db -->
<g id="edge19" class="edge">
<title>e_persons&#45;&gt;db</title>
<path fill="none" stroke="#888888" stroke-width="1.3" d="M279,-85.34C279,-85.34 279,-46.09 279,-46.09"/>
<polygon fill="#888888" stroke="#888888" stroke-width="1.3" points="281.63,-46.09 279,-38.59 276.38,-46.09 281.63,-46.09"/>
</g>
<!-- e_acopio&#45;&gt;db -->
<g id="edge20" class="edge">
<title>e_acopio&#45;&gt;db</title>
<path fill="none" stroke="#888888" stroke-width="1.3" d="M175.76,-85.34C175.76,-85.34 175.76,-46.09 175.76,-46.09"/>
<polygon fill="#888888" stroke="#888888" stroke-width="1.3" points="178.38,-46.09 175.76,-38.59 173.13,-46.09 178.38,-46.09"/>
</g>
<!-- e_events&#45;&gt;db -->
<g id="edge21" class="edge">
<title>e_events&#45;&gt;db</title>
<path fill="none" stroke="#888888" stroke-width="1.3" d="M382.43,-85.34C382.43,-85.34 382.43,-46.09 382.43,-46.09"/>
<polygon fill="#888888" stroke="#888888" stroke-width="1.3" points="385.06,-46.09 382.43,-38.59 379.81,-46.09 385.06,-46.09"/>
</g>
</g>
</svg>
